<svg width="32" height="32" viewBox="0 0 32 32" fill="none" xmlns="http://www.w3.org/2000/svg">
    <path d="M5.82738 11.7612L10.8043 8.90734M7.25432 14.2497L12.2312 11.3958M8.68126 16.7381L13.6582 13.8842M10.1082 19.2266L15.0851 16.3727M11.5351 21.715L16.512 18.8611M18.7266 19.7547H17.0395M18.7266 16.8862L15.3946 16.8862M18.7266 14.0176L13.7497 14.0176M18.7266 11.1491L12.9896 11.1491M18.7607 8.28056L13.0236 8.28056M21.2034 8.03006L26.3202 10.6247M19.906 10.5885L25.0229 13.1831M23.7255 15.7415L18.7607 13.2239M22.4282 18.2999L18.7607 16.4402M21.1308 20.8583L18.7607 19.6565M19.8031 23.4013L18.8548 22.9205M12.9765 12.6693V4.5L18.7607 4.5L18.7607 12.7719M12.9765 12.6693L9.38866 6.41241L4.37085 9.28961L14.8132 27.5L19.8309 24.6227L19.5155 24.0727M12.9765 12.6693L13.7497 14.0176M18.8548 22.9205L18.6844 22.6232L17.0395 19.7547M18.8548 22.9205L19.5155 24.0727M17.0395 19.7547L16.0738 18.0706L15.3946 16.8862M15.3946 16.8862L13.7497 14.0176M19.5155 24.0727L27.6292 8.07222L22.4704 5.45615L18.7607 12.7719M18.7607 13.2239V12.7719M18.7607 13.2239V16.4402M18.7607 16.4402V19.6565M18.7607 19.6565L18.7607 22.8149M16.5178 22.7156C16.7805 23.1737 16.6221 23.758 16.164 24.0207C15.7059 24.2834 15.1216 24.125 14.8589 23.6669C14.5962 23.2088 14.7546 22.6245 15.2127 22.3618C15.6708 22.0991 16.2551 22.2575 16.5178 22.7156Z" stroke="white"/>
</svg>